<svg xmlns="http://www.w3.org/2000/svg" xmlns:xlink="http://www.w3.org/1999/xlink" x="0" y="0" enable-background="new 0 0 100 100" version="1.1" viewBox="0 0 100 100" xml:space="preserve"><rect width="2.835" height="10" x="8.831" y="5" fill="#fff" transform="matrix(0.707 -0.7072 0.7072 0.707 -4.0692 10.1777)"/><rect width="2.835" height="10" x="8.831" y="25" fill="#fff" transform="matrix(0.7071 -0.7071 0.7071 0.7071 -18.2113 16.034)"/><rect width="2.835" height="10" x="8.831" y="45" fill="#fff" transform="matrix(0.707 -0.7072 0.7072 0.707 -32.357 21.8968)"/><rect width="2.835" height="10" x="8.831" y="65" fill="#fff" transform="matrix(0.707 -0.7072 0.7072 0.707 -46.5008 27.7564)"/><rect width="2.835" height="10" x="8.831" y="85" fill="#fff" transform="matrix(0.707 -0.7072 0.7072 0.707 -60.6447 33.616)"/><rect width="10" height="2.835" x="5.249" y="18.582" fill="#fff" transform="matrix(0.7071 -0.7071 0.7071 0.7071 -11.1403 13.105)"/><rect width="10" height="2.835" x="5.249" y="38.582" fill="#fff" transform="matrix(0.7071 -0.7071 0.7071 0.7071 -25.2824 18.9629)"/><rect width="10" height="2.834" x="5.249" y="58.583" fill="#fff" transform="matrix(0.7072 -0.7071 0.7071 0.7072 -39.4221 24.8173)"/><rect width="10" height="2.834" x="5.249" y="78.583" fill="#fff" transform="matrix(0.7072 -0.7071 0.7071 0.7072 -53.5633 30.6742)"/><rect width="2.835" height="10" x="15.093" y="5" fill="#fff" transform="matrix(0.707 -0.7072 0.7072 0.707 -2.2346 14.6062)"/><rect width="2.835" height="10" x="15.094" y="25" fill="#fff" transform="matrix(0.7071 -0.7071 0.7071 0.7071 -16.3772 20.462)"/><rect width="2.835" height="10" x="15.093" y="45" fill="#fff" transform="matrix(0.707 -0.7072 0.7072 0.707 -30.5223 26.3254)"/><rect width="2.835" height="10" x="15.093" y="65" fill="#fff" transform="matrix(0.707 -0.7072 0.7072 0.707 -44.6661 32.185)"/><rect width="2.835" height="10" x="15.093" y="85" fill="#fff" transform="matrix(0.707 -0.7072 0.7072 0.707 -58.81 38.0446)"/><rect width="10" height="2.835" x="11.511" y="18.582" fill="#fff" transform="matrix(0.7071 -0.7071 0.7071 0.7071 -9.3061 17.5331)"/><rect width="10" height="2.835" x="11.511" y="38.582" fill="#fff" transform="matrix(0.7071 -0.7071 0.7071 0.7071 -23.4482 23.3909)"/><rect width="10" height="2.834" x="11.511" y="58.583" fill="#fff" transform="matrix(0.7072 -0.7071 0.7071 0.7072 -37.5883 29.2451)"/><rect width="10" height="2.834" x="11.511" y="78.583" fill="#fff" transform="matrix(0.7072 -0.7071 0.7071 0.7072 -51.7294 35.1019)"/><rect width="2.835" height="10" x="21.356" y="5" fill="#fff" transform="matrix(0.707 -0.7072 0.7072 0.707 -0.3999 19.0348)"/><rect width="2.835" height="10" x="21.356" y="25" fill="#fff" transform="matrix(0.7071 -0.7071 0.7071 0.7071 -14.543 24.89)"/><rect width="2.835" height="10" x="21.356" y="45" fill="#fff" transform="matrix(0.707 -0.7072 0.7072 0.707 -28.6876 30.754)"/><rect width="2.835" height="10" x="21.356" y="65" fill="#fff" transform="matrix(0.707 -0.7072 0.7072 0.707 -42.8314 36.6136)"/><rect width="2.835" height="10" x="21.356" y="85" fill="#fff" transform="matrix(0.707 -0.7072 0.7072 0.707 -56.9753 42.4732)"/><rect width="10" height="2.835" x="17.773" y="18.582" fill="#fff" transform="matrix(0.7071 -0.7071 0.7071 0.7071 -7.472 21.9611)"/><rect width="10" height="2.835" x="17.773" y="38.582" fill="#fff" transform="matrix(0.7071 -0.7071 0.7071 0.7071 -21.6141 27.819)"/><rect width="10" height="2.834" x="17.774" y="58.583" fill="#fff" transform="matrix(0.7072 -0.7071 0.7071 0.7072 -35.7544 33.6728)"/><rect width="10" height="2.834" x="17.774" y="78.583" fill="#fff" transform="matrix(0.7072 -0.7071 0.7071 0.7072 -49.8956 39.5297)"/><rect width="2.835" height="10" x="27.618" y="5" fill="#fff" transform="matrix(0.707 -0.7072 0.7072 0.707 1.4348 23.4634)"/><rect width="2.835" height="10" x="27.618" y="25" fill="#fff" transform="matrix(0.7071 -0.7071 0.7071 0.7071 -12.7089 29.3181)"/><rect width="2.835" height="10" x="27.618" y="45" fill="#fff" transform="matrix(0.707 -0.7072 0.7072 0.707 -26.8529 35.1826)"/><rect width="2.835" height="10" x="27.618" y="65" fill="#fff" transform="matrix(0.707 -0.7072 0.7072 0.707 -40.9967 41.0422)"/><rect width="2.835" height="10" x="27.618" y="85" fill="#fff" transform="matrix(0.707 -0.7072 0.7072 0.707 -55.1406 46.9018)"/><rect width="10" height="2.835" x="24.035" y="18.582" fill="#fff" transform="matrix(0.7071 -0.7071 0.7071 0.7071 -5.6378 26.3892)"/><rect width="10" height="2.835" x="24.035" y="38.582" fill="#fff" transform="matrix(0.7071 -0.7071 0.7071 0.7071 -19.7799 32.247)"/><rect width="10" height="2.834" x="24.036" y="58.583" fill="#fff" transform="matrix(0.7072 -0.7071 0.7071 0.7072 -33.9206 38.1005)"/><rect width="10" height="2.834" x="24.036" y="78.583" fill="#fff" transform="matrix(0.7072 -0.7071 0.7071 0.7072 -48.0617 43.9574)"/><rect width="2.835" height="10" x="33.88" y="5" fill="#fff" transform="matrix(0.707 -0.7072 0.7072 0.707 3.2695 27.892)"/><rect width="2.835" height="10" x="33.88" y="25" fill="#fff" transform="matrix(0.7071 -0.7071 0.7071 0.7071 -10.8747 33.7461)"/><rect width="2.835" height="10" x="33.88" y="45" fill="#fff" transform="matrix(0.707 -0.7072 0.7072 0.707 -25.0182 39.6112)"/><rect width="2.835" height="10" x="33.88" y="65" fill="#fff" transform="matrix(0.707 -0.7072 0.7072 0.707 -39.162 45.4708)"/><rect width="2.835" height="10" x="33.88" y="85" fill="#fff" transform="matrix(0.707 -0.7072 0.7072 0.707 -53.3059 51.3304)"/><rect width="10" height="2.835" x="30.298" y="18.582" fill="#fff" transform="matrix(0.7071 -0.7071 0.7071 0.7071 -3.8036 30.8172)"/><rect width="10" height="2.835" x="30.298" y="38.582" fill="#fff" transform="matrix(0.7071 -0.7071 0.7071 0.7071 -17.9458 36.6751)"/><rect width="10" height="2.834" x="30.298" y="58.583" fill="#fff" transform="matrix(0.7072 -0.7071 0.7071 0.7072 -32.0867 42.5283)"/><rect width="10" height="2.834" x="30.298" y="78.583" fill="#fff" transform="matrix(0.7072 -0.7071 0.7071 0.7072 -46.2279 48.3852)"/><rect width="2.835" height="10" x="40.142" y="5" fill="#fff" transform="matrix(0.707 -0.7072 0.7072 0.707 5.1042 32.3206)"/><rect width="2.835" height="10" x="40.142" y="25" fill="#fff" transform="matrix(0.7071 -0.7071 0.7071 0.7071 -9.0405 38.1742)"/><rect width="2.835" height="10" x="40.142" y="45" fill="#fff" transform="matrix(0.707 -0.7072 0.7072 0.707 -23.1835 44.0398)"/><rect width="2.835" height="10" x="40.142" y="65" fill="#fff" transform="matrix(0.707 -0.7072 0.7072 0.707 -37.3273 49.8994)"/><rect width="2.835" height="10" x="40.142" y="85" fill="#fff" transform="matrix(0.707 -0.7072 0.7072 0.707 -51.4712 55.7589)"/><rect width="10" height="2.835" x="36.56" y="18.582" fill="#fff" transform="matrix(0.7071 -0.7071 0.7071 0.7071 -1.9695 35.2453)"/><rect width="10" height="2.835" x="36.56" y="38.582" fill="#fff" transform="matrix(0.7071 -0.7071 0.7071 0.7071 -16.1116 41.1031)"/><rect width="10" height="2.834" x="36.56" y="58.583" fill="#fff" transform="matrix(0.7072 -0.7071 0.7071 0.7072 -30.2528 46.956)"/><rect width="10" height="2.834" x="36.56" y="78.583" fill="#fff" transform="matrix(0.7072 -0.7071 0.7071 0.7072 -44.394 52.8129)"/><rect width="2.835" height="10" x="46.404" y="5" fill="#fff" transform="matrix(0.7069 -0.7073 0.7073 0.7069 6.9421 36.754)"/><rect width="2.835" height="10" x="46.405" y="25" fill="#fff" transform="matrix(0.7071 -0.7071 0.7071 0.7071 -7.2064 42.6022)"/><rect width="2.835" height="10" x="46.404" y="45" fill="#fff" transform="matrix(0.7069 -0.7073 0.7073 0.7069 -21.349 48.4766)"/><rect width="2.835" height="10" x="46.404" y="65" fill="#fff" transform="matrix(0.7069 -0.7073 0.7073 0.7069 -35.4946 54.3379)"/><rect width="2.835" height="10" x="46.404" y="85" fill="#fff" transform="matrix(0.7069 -0.7073 0.7073 0.7069 -49.6402 60.1992)"/><rect width="10" height="2.835" x="42.822" y="18.582" fill="#fff" transform="matrix(0.7071 -0.7071 0.7071 0.7071 -0.1353 39.6733)"/><rect width="10" height="2.835" x="42.822" y="38.582" fill="#fff" transform="matrix(0.7071 -0.7071 0.7071 0.7071 -14.2775 45.5312)"/><rect width="9.999" height="2.834" x="42.822" y="58.583" fill="#fff" transform="matrix(0.7071 -0.7071 0.7071 0.7071 -28.4194 51.3862)"/><rect width="9.999" height="2.834" x="42.822" y="78.583" fill="#fff" transform="matrix(0.7071 -0.7071 0.7071 0.7071 -42.561 57.2436)"/><rect width="2.835" height="10" x="52.666" y="5" fill="#fff" transform="matrix(0.7069 -0.7073 0.7073 0.7069 8.7773 41.183)"/><rect width="2.836" height="10" x="52.667" y="25" fill="#fff" transform="matrix(0.7073 -0.7069 0.7069 0.7073 -5.3763 47.016)"/><rect width="2.835" height="10" x="52.666" y="45" fill="#fff" transform="matrix(0.7069 -0.7073 0.7073 0.7069 -19.5139 52.9056)"/><rect width="2.835" height="10" x="52.666" y="65" fill="#fff" transform="matrix(0.7069 -0.7073 0.7073 0.7069 -33.6595 58.7669)"/><rect width="2.835" height="10" x="52.666" y="85" fill="#fff" transform="matrix(0.7069 -0.7073 0.7073 0.7069 -47.805 64.6282)"/><rect width="10.001" height="2.835" x="49.084" y="18.583" fill="#fff" transform="matrix(0.7072 -0.7071 0.7071 0.7072 1.6972 44.0979)"/><rect width="10.001" height="2.835" x="49.084" y="38.583" fill="#fff" transform="matrix(0.7072 -0.7071 0.7071 0.7072 -12.4439 49.9548)"/><rect width="9.999" height="2.834" x="49.085" y="58.583" fill="#fff" transform="matrix(0.7071 -0.7071 0.7071 0.7071 -26.5856 55.8167)"/><rect width="9.999" height="2.834" x="49.085" y="78.583" fill="#fff" transform="matrix(0.7071 -0.7071 0.7071 0.7071 -40.7277 61.6746)"/><rect width="2.835" height="10" x="58.928" y="5" fill="#fff" transform="matrix(0.7069 -0.7073 0.7073 0.7069 10.6124 45.6119)"/><rect width="2.836" height="10" x="58.929" y="25" fill="#fff" transform="matrix(0.7073 -0.7069 0.7069 0.7073 -3.5433 51.4428)"/><rect width="2.835" height="10" x="58.928" y="45" fill="#fff" transform="matrix(0.7069 -0.7073 0.7073 0.7069 -17.6787 57.3345)"/><rect width="2.835" height="10" x="58.928" y="65" fill="#fff" transform="matrix(0.7069 -0.7073 0.7073 0.7069 -31.8243 63.1958)"/><rect width="2.835" height="10" x="58.928" y="85" fill="#fff" transform="matrix(0.7069 -0.7073 0.7073 0.7069 -45.9699 69.0571)"/><rect width="10.001" height="2.835" x="55.346" y="18.583" fill="#fff" transform="matrix(0.7072 -0.7071 0.7071 0.7072 3.531 48.5255)"/><rect width="10.001" height="2.835" x="55.346" y="38.583" fill="#fff" transform="matrix(0.7072 -0.7071 0.7071 0.7072 -10.6101 54.3824)"/><rect width="9.999" height="2.834" x="55.346" y="58.583" fill="#fff" transform="matrix(0.7071 -0.7071 0.7071 0.7071 -24.7516 60.2444)"/><rect width="9.999" height="2.834" x="55.346" y="78.583" fill="#fff" transform="matrix(0.7071 -0.7071 0.7071 0.7071 -38.8937 66.1023)"/><rect width="2.835" height="10" x="65.19" y="5" fill="#fff" transform="matrix(0.7069 -0.7073 0.7073 0.7069 12.4475 50.0407)"/><rect width="2.836" height="10" x="65.19" y="25" fill="#fff" transform="matrix(0.7073 -0.7069 0.7069 0.7073 -1.7104 55.8694)"/><rect width="2.835" height="10" x="65.19" y="45" fill="#fff" transform="matrix(0.7069 -0.7073 0.7073 0.7069 -15.8436 61.7633)"/><rect width="2.835" height="10" x="65.19" y="65" fill="#fff" transform="matrix(0.7069 -0.7073 0.7073 0.7069 -29.9892 67.6246)"/><rect width="2.835" height="10" x="65.19" y="85" fill="#fff" transform="matrix(0.7069 -0.7073 0.7073 0.7069 -44.1348 73.4859)"/><rect width="10.001" height="2.835" x="61.608" y="18.583" fill="#fff" transform="matrix(0.7072 -0.7071 0.7071 0.7072 5.3647 52.9529)"/><rect width="10.001" height="2.835" x="61.608" y="38.583" fill="#fff" transform="matrix(0.7072 -0.7071 0.7071 0.7072 -8.7764 58.8098)"/><rect width="9.999" height="2.834" x="61.608" y="58.583" fill="#fff" transform="matrix(0.7071 -0.7071 0.7071 0.7071 -22.9175 64.6721)"/><rect width="9.999" height="2.834" x="61.608" y="78.583" fill="#fff" transform="matrix(0.7071 -0.7071 0.7071 0.7071 -37.0597 70.53)"/><rect width="2.835" height="10" x="71.452" y="5" fill="#fff" transform="matrix(0.7069 -0.7073 0.7073 0.7069 14.2826 54.4695)"/><rect width="2.836" height="10" x="71.452" y="25" fill="#fff" transform="matrix(0.7073 -0.7069 0.7069 0.7073 0.1226 60.296)"/><rect width="2.835" height="10" x="71.452" y="45" fill="#fff" transform="matrix(0.7069 -0.7073 0.7073 0.7069 -14.0085 66.1921)"/><rect width="2.835" height="10" x="71.452" y="65" fill="#fff" transform="matrix(0.7069 -0.7073 0.7073 0.7069 -28.1541 72.0534)"/><rect width="2.835" height="10" x="71.452" y="85" fill="#fff" transform="matrix(0.7069 -0.7073 0.7073 0.7069 -42.2997 77.9147)"/><rect width="10.001" height="2.835" x="67.87" y="18.583" fill="#fff" transform="matrix(0.7072 -0.7071 0.7071 0.7072 7.1984 57.3803)"/><rect width="10.001" height="2.835" x="67.87" y="38.583" fill="#fff" transform="matrix(0.7072 -0.7071 0.7071 0.7072 -6.9427 63.2372)"/><rect width="9.999" height="2.834" x="67.87" y="58.583" fill="#fff" transform="matrix(0.7071 -0.7071 0.7071 0.7071 -21.0835 69.0999)"/><rect width="9.999" height="2.834" x="67.87" y="78.583" fill="#fff" transform="matrix(0.7071 -0.7071 0.7071 0.7071 -35.2257 74.9577)"/><rect width="2.835" height="10" x="77.714" y="5" fill="#fff" transform="matrix(0.7069 -0.7073 0.7073 0.7069 16.1177 58.8983)"/><rect width="2.836" height="10" x="77.714" y="25" fill="#fff" transform="matrix(0.7073 -0.7069 0.7069 0.7073 1.9555 64.7227)"/><rect width="2.835" height="10" x="77.714" y="45" fill="#fff" transform="matrix(0.7069 -0.7073 0.7073 0.7069 -12.1734 70.6209)"/><rect width="2.835" height="10" x="77.714" y="65" fill="#fff" transform="matrix(0.7069 -0.7073 0.7073 0.7069 -26.319 76.4822)"/><rect width="2.835" height="10" x="77.714" y="85" fill="#fff" transform="matrix(0.7069 -0.7073 0.7073 0.7069 -40.4646 82.3435)"/><rect width="10.001" height="2.835" x="74.131" y="18.583" fill="#fff" transform="matrix(0.7072 -0.7071 0.7071 0.7072 9.0322 61.8077)"/><rect width="10.001" height="2.835" x="74.131" y="38.583" fill="#fff" transform="matrix(0.7072 -0.7071 0.7071 0.7072 -5.109 67.6646)"/><rect width="9.999" height="2.834" x="74.131" y="58.583" fill="#fff" transform="matrix(0.7071 -0.7071 0.7071 0.7071 -19.2495 73.5276)"/><rect width="9.999" height="2.834" x="74.131" y="78.583" fill="#fff" transform="matrix(0.7071 -0.7071 0.7071 0.7071 -33.3916 79.3854)"/><rect width="2.835" height="10" x="83.975" y="5" fill="#fff" transform="matrix(0.7069 -0.7073 0.7073 0.7069 17.9528 63.327)"/><rect width="2.836" height="10" x="83.976" y="25" fill="#fff" transform="matrix(0.7073 -0.7069 0.7069 0.7073 3.7885 69.1493)"/><rect width="2.835" height="10" x="83.975" y="45" fill="#fff" transform="matrix(0.7069 -0.7073 0.7073 0.7069 -10.3383 75.0497)"/><rect width="2.835" height="10" x="83.975" y="65" fill="#fff" transform="matrix(0.7069 -0.7073 0.7073 0.7069 -24.4839 80.911)"/><rect width="2.835" height="10" x="83.975" y="85" fill="#fff" transform="matrix(0.7069 -0.7073 0.7073 0.7069 -38.6295 86.7723)"/><rect width="10.001" height="2.835" x="80.393" y="18.583" fill="#fff" transform="matrix(0.7072 -0.7071 0.7071 0.7072 10.8659 66.2351)"/><rect width="10.001" height="2.835" x="80.393" y="38.583" fill="#fff" transform="matrix(0.7072 -0.7071 0.7071 0.7072 -3.2753 72.092)"/><rect width="9.999" height="2.834" x="80.393" y="58.583" fill="#fff" transform="matrix(0.7071 -0.7071 0.7071 0.7071 -17.4155 77.9553)"/><rect width="9.999" height="2.834" x="80.393" y="78.583" fill="#fff" transform="matrix(0.7071 -0.7071 0.7071 0.7071 -31.5576 83.8131)"/><rect width="2.835" height="10" x="90.237" y="5" fill="#fff" transform="matrix(0.7069 -0.7073 0.7073 0.7069 19.7879 67.7558)"/><rect width="2.836" height="10" x="90.237" y="25" fill="#fff" transform="matrix(0.7073 -0.7069 0.7069 0.7073 5.6214 73.5759)"/><rect width="2.835" height="10" x="90.237" y="45" fill="#fff" transform="matrix(0.7069 -0.7073 0.7073 0.7069 -8.5032 79.4784)"/><rect width="2.835" height="10" x="90.237" y="65" fill="#fff" transform="matrix(0.7069 -0.7073 0.7073 0.7069 -22.6488 85.3398)"/><rect width="2.835" height="10" x="90.237" y="85" fill="#fff" transform="matrix(0.7069 -0.7073 0.7073 0.7069 -36.7944 91.2011)"/><rect width="10.001" height="2.835" x="86.655" y="18.583" fill="#fff" transform="matrix(0.7072 -0.7071 0.7071 0.7072 12.6996 70.6625)"/><rect width="10.001" height="2.835" x="86.655" y="38.583" fill="#fff" transform="matrix(0.7072 -0.7071 0.7071 0.7072 -1.4416 76.5194)"/><rect width="9.999" height="2.834" x="86.655" y="58.583" fill="#fff" transform="matrix(0.7071 -0.7071 0.7071 0.7071 -15.5815 82.383)"/><rect width="9.999" height="2.834" x="86.655" y="78.583" fill="#fff" transform="matrix(0.7071 -0.7071 0.7071 0.7071 -29.7236 88.2408)"/></svg>